<?xml version="1.0" standalone="no"?>
<!DOCTYPE svg PUBLIC "-//W3C//DTD SVG 20010904//EN"
 "http://www.w3.org/TR/2001/REC-SVG-20010904/DTD/svg10.dtd">
<svg version="1.0" xmlns="http://www.w3.org/2000/svg"
 width="500.000000pt" height="500.000000pt" viewBox="0 0 500.000000 500.000000"
 preserveAspectRatio="xMidYMid meet">
<metadata>
Created by potrace 1.14, written by Peter Selinger 2001-2017
</metadata>
<g transform="translate(0.000000,500.000000) scale(0.100000,-0.100000)"
fill="#000000" stroke="none">
<path d="M3596 4646 c-67 -28 -116 -71 -153 -133 -14 -24 -31 -43 -39 -43 -15
0 -19 -16 -6 -24 5 -3 12 -45 15 -93 4 -53 16 -119 32 -167 31 -93 124 -292
166 -354 16 -24 29 -45 29 -48 0 -6 73 -114 134 -199 97 -133 111 -146 144
-134 13 5 32 7 41 4 10 -3 26 2 37 10 10 8 40 15 66 15 26 0 49 4 53 9 22 37
122 10 142 -37 21 -53 63 -182 63 -198 0 -9 5 -12 11 -8 8 5 9 2 1 -11 -6 -11
-6 -27 -1 -39 18 -43 31 -176 36 -360 6 -209 -9 -342 -52 -471 -13 -38 -26
-89 -30 -112 -4 -24 -11 -45 -16 -49 -5 -3 -9 -15 -9 -27 0 -12 -14 -42 -30
-67 -16 -25 -30 -49 -30 -53 0 -4 -7 -24 -16 -45 -10 -20 -19 -46 -21 -57 -2
-10 -7 -22 -12 -25 -5 -3 -18 -24 -30 -47 -12 -24 -26 -43 -31 -43 -6 0 -10
-9 -10 -20 0 -11 -5 -20 -10 -20 -6 0 -19 -9 -30 -20 -11 -11 -29 -20 -40 -20
-19 0 -70 -19 -80 -30 -3 -3 -21 -13 -40 -22 -19 -9 -55 -30 -80 -47 -24 -16
-47 -27 -50 -23 -12 18 -129 61 -180 66 -30 4 -72 9 -94 13 -29 4 -37 2 -31
-7 5 -7 4 -11 -1 -8 -21 13 -116 -12 -140 -35 -14 -14 -38 -30 -54 -37 -17 -7
-30 -17 -30 -23 0 -5 -10 -19 -23 -31 -12 -11 -35 -43 -51 -71 l-28 -50 0
-207 c0 -115 -4 -208 -8 -208 -5 0 -12 -9 -15 -20 -3 -11 -15 -20 -25 -20 -10
0 -22 -5 -25 -10 -3 -6 -24 -10 -46 -10 -32 0 -39 -3 -39 -20 0 -17 -7 -20
-40 -20 -30 0 -40 -4 -40 -16 0 -14 -10 -15 -80 -9 -56 5 -80 4 -80 -4 0 -6
-17 -11 -40 -11 -22 0 -40 -4 -40 -10 0 -6 -87 -10 -240 -10 -153 0 -240 4
-240 10 0 6 -18 10 -40 10 -23 0 -40 5 -40 11 0 8 -24 9 -80 4 -70 -6 -80 -5
-80 9 0 12 -9 16 -34 16 -23 0 -44 9 -67 30 -37 33 -59 38 -59 15 0 -17 -9
-19 -29 -6 -8 5 -10 14 -6 22 5 8 5 11 0 7 -4 -4 -14 0 -21 10 -11 13 -15 14
-22 4 -6 -9 -19 -4 -53 23 -29 23 -55 35 -75 35 -22 0 -33 6 -36 18 -3 9 -18
24 -34 32 -36 19 -58 36 -101 78 -37 38 -40 44 -18 35 14 -5 16 6 14 68 -2 68
21 180 44 216 4 6 10 33 14 60 3 26 10 50 14 53 11 8 31 184 24 218 -12 56
-40 142 -47 142 -13 0 -9 28 5 33 7 3 5 6 -5 6 -10 1 -22 11 -29 23 -18 36
-99 108 -120 108 -11 0 -30 5 -42 12 -26 14 -158 21 -136 7 10 -6 5 -9 -16 -9
-29 0 -124 -44 -205 -95 -33 -21 -40 -22 -56 -10 -11 8 -29 15 -41 15 -12 0
-25 5 -28 10 -8 13 -100 60 -118 60 -8 0 -26 9 -40 20 -14 11 -33 20 -43 20
-9 0 -15 2 -12 5 3 3 -8 54 -24 113 -16 59 -31 125 -34 147 -4 22 -11 46 -18
54 -17 21 -16 553 1 558 8 3 11 14 7 28 -3 12 1 36 9 51 14 28 40 143 36 161
-2 9 8 39 22 66 6 10 7 28 3 39 -4 14 -2 18 5 14 7 -5 11 1 11 14 0 12 8 34
19 48 22 32 45 81 66 142 9 24 24 54 35 65 19 20 20 23 20 48 0 8 4 7 10 -3 8
-12 10 -11 8 5 -3 37 2 56 12 50 6 -3 10 1 10 9 0 9 5 16 10 16 6 0 10 8 10
18 0 23 -53 -39 -82 -98 -13 -24 -28 -50 -35 -57 -21 -23 -110 -216 -146 -318
-46 -128 -92 -314 -108 -435 -27 -201 -13 -504 31 -680 19 -74 28 -155 19
-163 -2 -3 -24 -15 -48 -27 -64 -32 -144 -116 -159 -166 -19 -65 -15 -186 8
-252 55 -155 244 -387 481 -589 173 -146 175 -147 277 -128 36 7 114 74 139
119 10 17 11 17 44 1 19 -10 74 -45 124 -78 49 -33 148 -89 220 -123 261 -125
517 -190 798 -200 318 -13 576 31 864 147 66 27 132 49 146 49 38 0 118 -47
160 -93 21 -23 82 -90 135 -149 53 -58 104 -107 114 -107 17 -1 165 126 301
258 246 239 390 477 372 614 -15 120 -80 216 -178 265 l-47 23 14 32 c8 18 41
93 75 167 69 155 103 263 139 440 24 114 26 148 26 375 1 220 -2 265 -22 375
-13 69 -30 145 -38 170 -45 143 -59 183 -90 261 -19 48 -34 95 -34 106 0 51
113 257 221 404 27 37 67 102 89 144 36 69 40 85 40 150 0 99 -23 159 -82 217
-63 61 -137 90 -239 90 -88 1 -142 -19 -204 -75 -22 -20 -43 -37 -47 -37 -4 0
-15 12 -25 26 -78 113 -150 155 -278 161 -68 3 -89 0 -139 -21z m242 -50 c38
-19 57 -37 72 -66 l21 -41 -24 -21 c-20 -17 -39 -22 -98 -24 -80 -3 -167 -18
-238 -41 -39 -12 -46 -12 -59 1 -30 29 -10 118 34 157 24 21 82 52 114 61 45
12 126 0 178 -26z m512 -56 c68 -13 133 -46 157 -79 31 -42 56 -117 49 -146
-4 -15 -15 -36 -26 -47 l-19 -21 -43 29 c-24 16 -60 36 -80 46 -21 9 -38 22
-38 28 0 5 -10 10 -23 10 -13 0 -28 5 -33 10 -6 6 -36 17 -69 25 -53 14 -84
35 -85 59 0 5 18 26 40 47 51 48 82 56 170 39z m-3157 -2357 c-7 -2 -19 -2
-25 0 -7 3 -2 5 12 5 14 0 19 -2 13 -5z m-15 -84 c89 -19 162 -101 162 -182 0
-60 -40 -73 -119 -37 -44 20 -128 37 -251 49 l-65 6 1 38 c1 42 29 78 79 105
61 31 117 38 193 21z m-567 -71 c51 -29 79 -61 79 -90 0 -16 -6 -30 -12 -32
-42 -10 -185 -60 -192 -67 -6 -5 -16 -9 -24 -9 -7 0 -40 -16 -73 -35 -48 -28
-64 -33 -84 -25 -50 19 -37 127 24 193 26 29 83 62 131 78 34 11 122 4 151
-13z m3009 -401 c43 -21 90 -75 90 -103 0 -22 -55 -44 -108 -44 -27 0 -62 -4
-78 -9 -16 -5 -56 -17 -89 -26 -33 -9 -72 -21 -87 -27 -14 -5 -36 -7 -47 -3
-17 5 -21 15 -21 51 0 63 28 110 91 150 77 49 165 53 249 11z m606 -47 c47
-23 84 -61 103 -107 14 -34 17 -105 5 -124 -9 -16 -80 -5 -99 15 -9 9 -22 16
-29 16 -7 0 -34 11 -59 24 -25 14 -85 34 -134 46 -81 20 -89 24 -88 46 0 34
47 88 87 102 46 16 164 6 214 -18z"/>
<path d="M4727 4359 c13 -179 -60 -380 -236 -652 -79 -121 -86 -157 -46 -243
54 -118 89 -239 122 -424 26 -148 26 -558 0 -710 -33 -197 -103 -430 -169
-566 -41 -84 -41 -80 4 -114 49 -35 58 -37 51 -11 -3 11 2 34 11 52 9 18 16
39 16 49 0 9 4 20 9 26 13 13 87 236 105 314 88 390 71 851 -44 1165 -43 119
-62 198 -57 240 5 47 44 130 105 221 136 204 213 457 181 594 -7 30 -15 57
-18 60 -4 3 -13 21 -23 40 l-16 35 5 -76z"/>
<path d="M1002 4150 c-18 -16 -28 -30 -24 -30 5 0 21 14 37 30 16 17 26 30 23
30 -3 0 -19 -13 -36 -30z"/>
<path d="M924 4068 l-29 -33 33 29 c17 17 32 31 32 33 0 8 -8 1 -36 -29z"/>
<path d="M829 3958 c-24 -29 -49 -61 -57 -70 -12 -15 -12 -16 5 -11 17 5 63
65 63 84 0 5 3 9 8 9 4 0 13 9 20 20 22 36 5 21 -39 -32z"/>
<path d="M1571 3599 c-95 -12 -193 -44 -304 -100 -116 -58 -181 -101 -204
-136 -16 -25 -16 -26 6 -44 13 -11 28 -19 35 -19 6 0 53 20 105 45 152 74 230
97 356 103 92 4 123 1 188 -17 97 -26 158 -27 180 -3 60 66 -41 148 -208 171
-42 6 -79 10 -83 10 -4 -1 -36 -5 -71 -10z"/>
<path d="M3094 3599 c-69 -10 -163 -48 -194 -79 -25 -25 -26 -72 -2 -93 25
-23 81 -21 170 3 119 33 286 24 419 -24 23 -8 83 -35 134 -61 69 -35 99 -44
120 -40 33 7 42 27 28 59 -15 33 -199 141 -311 184 -77 28 -252 65 -293 61 -5
-1 -38 -5 -71 -10z"/>
<path d="M1655 2866 c-111 -25 -171 -53 -233 -110 -47 -43 -62 -77 -62 -136 0
-42 5 -55 26 -75 15 -14 30 -25 34 -25 5 0 41 16 81 35 180 84 386 115 513 77
l68 -21 23 24 c29 28 42 88 26 119 -16 29 -93 79 -156 101 -66 23 -240 29
-320 11z"/>
<path d="M2903 2870 c-59 -12 -148 -56 -183 -91 -34 -34 -39 -73 -15 -119 23
-45 40 -49 107 -29 35 11 89 19 131 19 116 -1 306 -50 405 -105 57 -32 65 -31
95 5 36 42 41 65 27 116 -41 144 -335 249 -567 204z"/>
<path d="M3575 2513 c-8 -7 -17 -22 -20 -33 -3 -11 -10 -20 -14 -20 -18 0 -5
-33 21 -56 35 -29 65 -30 96 -5 25 22 31 91 10 109 -22 16 -79 20 -93 5z"/>
<path d="M1160 2490 c-7 -16 -16 -30 -20 -30 -19 0 -1 -34 34 -66 l39 -35 26
24 c14 13 34 27 43 30 19 7 17 29 -4 74 -11 24 -20 28 -59 31 -43 3 -47 1 -59
-28z"/>
<path d="M1847 1803 c-37 -36 103 -230 242 -337 104 -80 241 -136 330 -136 57
0 158 35 248 86 119 66 323 295 323 362 0 40 -29 37 -134 -15 -152 -76 -248
-104 -388 -110 -188 -9 -322 21 -501 112 -86 45 -107 51 -120 38z"/>
<path d="M4545 1347 c0 -94 -4 -122 -24 -177 -62 -163 -193 -336 -426 -561
-162 -156 -296 -269 -320 -269 -15 -1 -11 -6 16 -20 29 -15 43 -17 81 -9 25 6
54 18 64 27 11 9 49 43 84 74 36 31 97 86 135 122 39 36 73 66 78 66 4 0 7 4
7 9 0 5 12 22 28 38 228 238 335 430 333 598 0 63 -18 142 -42 187 -13 25 -14
17 -14 -85z"/>
<path d="M1105 818 c-44 -23 -77 -32 -129 -36 l-69 -5 39 -21 c53 -28 157 -27
239 2 64 23 114 28 155 17 21 -6 20 -4 -10 19 -19 14 -44 32 -55 41 -33 26
-103 19 -170 -17z"/>
<path d="M3299 684 c-98 -46 -312 -113 -439 -138 -376 -74 -732 -56 -1095 56
-100 31 -147 49 -197 74 -37 20 -45 17 -16 -5 13 -11 37 -23 51 -26 15 -4 30
-11 33 -16 3 -5 12 -9 20 -9 8 0 33 -9 57 -19 187 -85 497 -150 737 -155 299
-6 532 33 831 140 52 19 110 34 128 34 l33 0 -24 28 c-49 61 -59 64 -119 36z"/>
</g>
</svg>
